<?xml version="1.0" encoding="utf-8"?>
<!-- Generator: Adobe Illustrator 19.2.1, SVG Export Plug-In . SVG Version: 6.00 Build 0)  -->
<svg version="1.1" id="Layer_1" xmlns="http://www.w3.org/2000/svg" xmlns:xlink="http://www.w3.org/1999/xlink" x="0px" y="0px"
	 viewBox="0 0 25.9301 5.375" style="enable-background:new 0 0 25.9301 5.375;" xml:space="preserve">
<style type="text/css">
	.st0{fill:#A3B345;}
</style>
<g>
	<path class="st0" d="M0.8103,2.0016c0.1634-0.4561,0.4903-0.674,0.9737-0.674c0.497,0,0.9327,0.2858,0.9327,0.9874v2.2332H1.9065
		V2.6008c0-0.3608-0.1225-0.5856-0.4632-0.5856c-0.3266,0-0.633,0.1703-0.633,0.7761v1.7569H0V0h0.8103V2.0016z"/>
	<path class="st0" d="M5.6714,3.6627c0,0.2253,0.0955,0.2929,0.2316,0.2929c0.0749,0,0.1293-0.0203,0.1905-0.0474v0.599
		C5.9779,4.5753,5.828,4.6027,5.6375,4.6027c-0.3883,0-0.6332-0.15-0.715-0.4974C4.7726,4.4938,4.4186,4.6298,4.0032,4.6298
		c-0.5582,0-0.9326-0.32-0.9326-0.8582c0-0.7011,0.5583-1.0892,1.7907-1.0211V2.4169c0-0.3061-0.1499-0.4698-0.4291-0.4698
		c-0.2859,0-0.4357,0.1771-0.4562,0.4768L3.1795,2.2809c0.0476-0.6674,0.6196-0.9532,1.2936-0.9532
		c0.7217,0,1.1983,0.3066,1.1983,1.0145V3.6627z M4.8613,3.2066c-0.7082-0.02-0.9805,0.1566-0.9805,0.4768
		c0,0.2111,0.1431,0.3608,0.4017,0.3608c0.2656,0,0.5788-0.1429,0.5788-0.47V3.2066z"/>
	<path class="st0" d="M7.739,3.4114C7.4939,3.7448,7.3239,3.9082,7.3239,3.9082v0.0271c0,0,0.1837-0.0271,0.5582-0.0271h0.9941v0.64
		H6.3978V4.0646l1.0485-1.5113c0.2383-0.3334,0.4151-0.4971,0.4151-0.4971V2.029c0,0-0.1837,0.0271-0.5582,0.0271H6.4589V1.4024
		h2.3558V1.92L7.739,3.4114z"/>
	<path class="st0" d="M11.7218,3.6627c0,0.2253,0.0954,0.2929,0.2317,0.2929c0.0749,0,0.1294-0.0203,0.1905-0.0474v0.599
		c-0.1157,0.0682-0.2656,0.0955-0.4561,0.0955c-0.3882,0-0.6334-0.15-0.7149-0.4974c-0.1499,0.3884-0.504,0.5245-0.9194,0.5245
		c-0.5582,0-0.9328-0.32-0.9328-0.8582c0-0.7011,0.5584-1.0892,1.7907-1.0211V2.4169c0-0.3061-0.1498-0.4698-0.4289-0.4698
		c-0.2861,0-0.4357,0.1771-0.4562,0.4768L9.23,2.2809c0.0476-0.6674,0.6195-0.9532,1.2937-0.9532
		c0.7216,0,1.1982,0.3066,1.1982,1.0145L11.7218,3.6627L11.7218,3.6627z M10.9117,3.2066c-0.708-0.02-0.9804,0.1566-0.9804,0.4768
		c0,0.2111,0.143,0.3608,0.4016,0.3608c0.2655,0,0.5788-0.1429,0.5788-0.47L10.9117,3.2066L10.9117,3.2066z"/>
	<path class="st0" d="M13.2264,2.0087c0.1704-0.47,0.5243-0.6811,1.0079-0.6811c0.497,0,0.9328,0.2858,0.9328,0.9874v2.2332h-0.8102
		V2.6008c0-0.3608-0.1226-0.5856-0.463-0.5856c-0.327,0-0.6333,0.1769-0.6333,0.7761v1.7569h-0.8101V1.4024h0.6808L13.2264,2.0087z"
		/>
	<path class="st0" d="M16.5303,2.8968V1.8433h0.3347v1.0535h1.1095v0.3344H16.865v1.1407h-0.3347V3.2312h-1.0847V2.8968H16.5303z"/>
	<path class="st0" d="M21.0836,3.7174c-0.1158,0.6332-0.647,0.9124-1.2937,0.9124c-0.885,0-1.4774-0.5924-1.4774-1.6406
		c0-1.0489,0.5924-1.6616,1.4978-1.6616c0.7219,0,1.1849,0.3882,1.2257,1.0145l-0.6945,0.1837
		c-0.0545-0.354-0.2247-0.5516-0.5447-0.5516c-0.4562,0-0.6944,0.395-0.6944,1.0076c0,0.62,0.2655,1.0147,0.7079,1.0147
		c0.2793,0,0.4767-0.1295,0.5584-0.4903L21.0836,3.7174z"/>
	<path class="st0" d="M21.3148,2.9616c0-1.069,0.5925-1.634,1.4912-1.634c0.8987,0,1.4926,0.565,1.4926,1.634
		c0,1.069-0.5939,1.6682-1.4926,1.6682C21.9073,4.6298,21.3148,4.0306,21.3148,2.9616z M22.1185,2.9682
		c0,0.6945,0.2245,1.0284,0.6875,1.0284c0.47,0,0.6945-0.3339,0.6945-1.0284c0-0.6737-0.2311-0.9869-0.6945-0.9869
		C22.3498,1.9814,22.1185,2.2945,22.1185,2.9682z"/>
	<path class="st0" d="M24.7181,3.8543c0.2057,0,0.3643,0.1589,0.3643,0.3643c0,0.206-0.1586,0.3649-0.3643,0.3649
		c-0.2057,0-0.3646-0.1589-0.3646-0.3649C24.3536,4.0131,24.5124,3.8543,24.7181,3.8543z"/>
</g>
</svg>
