<?xml version="1.0" encoding="utf-8"?>
<!-- Generator: Adobe Illustrator 19.2.1, SVG Export Plug-In . SVG Version: 6.00 Build 0)  -->
<svg version="1.1" id="Layer_1" xmlns="http://www.w3.org/2000/svg" xmlns:xlink="http://www.w3.org/1999/xlink" x="0px" y="0px"
	 viewBox="0 0 100.1551 20.4489" style="enable-background:new 0 0 100.1551 20.4489;" xml:space="preserve">
<style type="text/css">
	.st0{fill:#FFFFFF;}
</style>
<g>
	<path class="st0" d="M5.1381,8.5713C5.768,6.8135,7.0278,5.9736,8.891,5.9736c1.9156,0,3.5948,1.1016,3.5948,3.8057v8.6074H9.3632
		v-7.5058c0-1.3907-0.4722-2.2569-1.7852-2.2569c-1.2587,0-2.4399,0.6563-2.4399,2.9912v6.7715h-3.123V0.8564h3.123V8.5713z"/>
	<path class="st0" d="M23.8744,14.9736c0,0.8682,0.3682,1.1289,0.8926,1.1289c0.2886,0,0.4985-0.0781,0.7344-0.1826v2.3086
		c-0.4458,0.2627-1.0234,0.3682-1.7578,0.3682c-1.4966,0-2.4405-0.5781-2.7559-1.917c-0.5776,1.4971-1.9419,2.0215-3.543,2.0215
		c-2.1513,0-3.5947-1.2334-3.5947-3.3076c0-2.7022,2.1519-4.1983,6.9019-3.9356v-1.2861c0-1.1797-0.5777-1.8106-1.6538-1.8106
		c-1.1021,0-1.6792,0.6826-1.7583,1.8379l-3.0699-0.5517c0.1836-2.5723,2.3882-3.6739,4.9859-3.6739
		c2.7817,0,4.6186,1.1817,4.6186,3.9102V14.9736z M20.7519,13.2158c-2.7295-0.0771-3.7793,0.6035-3.7793,1.8379
		c0,0.8135,0.5517,1.3906,1.5483,1.3906c1.0239,0,2.231-0.5507,2.231-1.8115V13.2158z"/>
	<path class="st0" d="M31.8437,14.0049c-0.9448,1.2851-1.6001,1.915-1.6001,1.915v0.1045c0,0,0.708-0.1045,2.1513-0.1045h3.8316
		v2.4668h-9.5523v-1.8642l4.0411-5.8252c0.9184-1.2852,1.6001-1.9161,1.6001-1.9161V8.6768c0,0-0.7081,0.1044-2.1514,0.1044h-3.2544
		V6.2617h9.0801v1.9951L31.8437,14.0049z"/>
	<path class="st0" d="M47.1947,14.9736c0,0.8682,0.3677,1.1289,0.8931,1.1289c0.2886,0,0.4986-0.0781,0.7344-0.1826v2.3086
		c-0.4458,0.2627-1.0239,0.3682-1.7578,0.3682c-1.4961,0-2.4414-0.5781-2.7554-1.917c-0.5776,1.4971-1.9424,2.0215-3.5435,2.0215
		c-2.1513,0-3.5952-1.2334-3.5952-3.3076c0-2.7022,2.1524-4.1983,6.9019-3.9356v-1.2861c0-1.1797-0.5772-1.8106-1.6533-1.8106
		c-1.1026,0-1.6792,0.6826-1.7583,1.8379l-3.0703-0.5517c0.1836-2.5723,2.3877-3.6739,4.9863-3.6739
		c2.7812,0,4.6181,1.1817,4.6181,3.9102L47.1947,14.9736L47.1947,14.9736z M44.0722,13.2158
		c-2.729-0.0771-3.7788,0.6035-3.7788,1.8379c0,0.8135,0.5513,1.3906,1.5478,1.3906c1.0235,0,2.231-0.5507,2.231-1.8115
		L44.0722,13.2158L44.0722,13.2158z"/>
	<path class="st0" d="M52.9936,8.5986c0.6567-1.8115,2.021-2.625,3.8847-2.625c1.9156,0,3.5953,1.1016,3.5953,3.8057v8.6074H57.351
		v-7.5058c0-1.3907-0.4727-2.2569-1.7847-2.2569c-1.2602,0-2.4409,0.6817-2.4409,2.9912v6.7715h-3.1225V6.2617h2.624L52.9936,8.5986
		z"/>
	<path class="st0" d="M65.728,12.0215V7.9609h1.29v4.0606h4.2764v1.289H67.018v4.3965h-1.29v-4.3965h-4.1807v-1.289H65.728z"/>
	<path class="st0" d="M83.2778,15.1846c-0.4463,2.4404-2.4937,3.5166-4.9864,3.5166c-3.4111,0-5.6943-2.2832-5.6943-6.3233
		c0-4.0429,2.2832-6.4043,5.7729-6.4043c2.7823,0,4.5669,1.4961,4.7242,3.9102l-2.6768,0.708
		c-0.21-1.3643-0.8662-2.126-2.0996-2.126c-1.7583,0-2.6763,1.5225-2.6763,3.8838c0,2.3897,1.0235,3.9111,2.7285,3.9111
		c1.0767,0,1.8374-0.499,2.1524-1.8896L83.2778,15.1846z"/>
	<path class="st0" d="M84.1689,12.2715c0-4.1201,2.2837-6.2979,5.7475-6.2979c3.4639,0,5.753,2.1778,5.753,6.2979
		c0,4.1201-2.2891,6.4297-5.753,6.4297C86.4526,18.7012,84.1689,16.3916,84.1689,12.2715z M87.2665,12.2969
		c0,2.6767,0.8653,3.9638,2.6499,3.9638c1.8116,0,2.6768-1.2871,2.6768-3.9638c0-2.5967-0.8906-3.8037-2.6768-3.8037
		C88.1581,8.4932,87.2665,9.7002,87.2665,12.2969z"/>
	<path class="st0" d="M97.2865,15.7119c0.793,0,1.4043,0.6123,1.4043,1.4043c0,0.794-0.6113,1.4063-1.4043,1.4063
		c-0.7929,0-1.4052-0.6123-1.4052-1.4063C95.8813,16.3242,96.4936,15.7119,97.2865,15.7119z"/>
</g>
</svg>
